<?xml version="1.0" ?><!DOCTYPE svg  PUBLIC '-//W3C//DTD SVG 1.1//EN'  'http://www.w3.org/Graphics/SVG/1.1/DTD/svg11.dtd'><svg enable-background="new 0 0 91 91" height="91px" id="Layer_1" version="1.1" viewBox="0 0 91 91" width="91px" xml:space="preserve" xmlns="http://www.w3.org/2000/svg" xmlns:xlink="http://www.w3.org/1999/xlink"><g><path d="M29.967,73.564l15.617-13.233l15.617,13.233c0.313,0.266,0.703,0.403,1.098,0.403c0.242,0,0.486-0.052,0.717-0.157   C63.613,73.531,64,72.93,64,72.268V27.506c0-3.596-2.926-6.52-6.52-6.52H33.686c-3.594,0-6.518,2.924-6.518,6.52v44.762   c0,0.662,0.385,1.264,0.984,1.543C28.754,74.088,29.459,73.992,29.967,73.564z M30.566,27.506c0-1.721,1.4-3.119,3.119-3.119H57.48   c1.719,0,3.119,1.398,3.119,3.119v41.093L46.682,56.807c-0.316-0.27-0.707-0.403-1.098-0.403c-0.393,0-0.783,0.134-1.1,0.403   L30.566,68.599V27.506z"/><rect height="19.267" width="3.4" x="38.217" y="32.604"/><rect height="19.267" width="3.398" x="49.834" y="32.604"/></g></svg>