<?xml version="1.0" ?><svg viewBox="0 0 28.87 28.87" xmlns="http://www.w3.org/2000/svg"><defs><style>.cls-1{fill:#fd3832;}.cls-2{fill:#fff;fill-rule:evenodd;}</style></defs><title/><g data-name="Layer 2" id="Layer_2"><g data-name="Layer 1" id="Layer_1-2"><rect class="cls-1" height="28.87" rx="6.48" ry="6.48" width="28.87"/><path class="cls-2" d="M8,19.77a1.88,1.88,0,0,1-1.24-1.21c-.54-1.48-.7-7.66.34-8.88A2,2,0,0,1,8.46,9c2.79-.3,11.41-.26,12.4.1a1.94,1.94,0,0,1,1.22,1.17c.59,1.53.61,7.09-.08,8.56a1.89,1.89,0,0,1-.87.88C20.09,20.23,9.38,20.22,8,19.77Zm4.43-2.9,5-2.6-5-2.62Z"/></g></g></svg>